# xmcd
#
# Track frame offsets:
#	225
#	13233
#	39981
#	51566
#	77341
#	104555
#	131367
#	153970
#	170391
#	186055
#	220006
#	240377
#	253275
#	274391
#
# Disc length: 4039 seconds
#
# Revision: 1
# Processed by: cddbd v1.4PL0 Copyright (c) Steve Scherf et al.
# Submitted via: audiograbber 1.81.03
#
DISCID=bd0fc40e
DTITLE=Carol Fran - Woman In (E)Motion
DYEAR=1994
DGENRE=Blues
TTITLE0=Lonesome Road
TTITLE1=Stormy Monday
TTITLE2=Daddy Daddy
TTITLE3=Peeping And Hiding
TTITLE4=Sunny
TTITLE5=Ain´t Nobody´s Business
TTITLE6=You Don´t Know Me
TTITLE7=Darktown Strutters Ball
TTITLE8=Every Day Is Not The Same
TTITLE9=Cry Me A River
TTITLE10=All Of Me
TTITLE11=Fine Brown Frame
TTITLE12=Ain´t Misbehavin´
TTITLE13=Untitled
EXTD=Tradition and More
EXTT0=
EXTT1=
EXTT2=
EXTT3=
EXTT4=
EXTT5=
EXTT6=
EXTT7=
EXTT8=
EXTT9=
EXTT10=
EXTT11=
EXTT12=
EXTT13=
PLAYORDER=
